<svg width="32" height="26" viewBox="0 0 32 26" fill="none" xmlns="http://www.w3.org/2000/svg">
<path fill-rule="evenodd" clip-rule="evenodd" d="M0 0H32V25.6H0V0Z" fill="#222222"/>
<path fill-rule="evenodd" clip-rule="evenodd" d="M16.0705 23.2533L31.1455 12.816L15.9805 2.34668L0.855469 12.8373L16.0705 23.2533Z" fill="white"/>
<path fill-rule="evenodd" clip-rule="evenodd" d="M22.6404 12.8C22.6404 16.5493 19.7854 19.5893 16.2604 19.5893C15.0007 19.5872 13.77 19.1868 12.7236 18.4387C11.6773 17.6905 10.8624 16.6283 10.3819 15.3863C9.90149 14.1442 9.77706 12.7781 10.0244 11.4606C10.2717 10.1431 10.8797 8.93343 11.7714 7.98446C12.6632 7.03549 13.7987 6.38984 15.0344 6.12913C16.2701 5.86843 17.5506 6.00437 18.7139 6.51977C19.8771 7.03517 20.8711 7.90689 21.57 9.02474C22.2689 10.1426 22.6414 11.4564 22.6404 12.8Z" fill="#090726"/>
<path fill-rule="evenodd" clip-rule="evenodd" d="M14.1651 16.8692L13.9651 16.7465L13.7651 16.8532L13.8101 16.6132L13.6501 16.4319L13.8751 16.4052L13.9851 16.1919L14.0801 16.4159L14.3001 16.4585L14.1351 16.6185M18.4351 18.0212L18.2401 17.8985L18.0401 18.0052L18.0801 17.7652L17.9251 17.5892L18.1501 17.5625L18.2551 17.3439L18.3551 17.5679L18.5751 17.6105L18.4051 17.7759M16.5951 16.1759L16.4251 16.0692L16.2501 16.1652L16.2901 15.9572L16.1501 15.8025L16.3501 15.7812L16.4401 15.5892L16.5201 15.7865L16.7151 15.8239L16.5651 15.9679M20.9151 15.5145L20.7451 15.4079L20.5701 15.5039L20.6101 15.2959L20.4751 15.1465L20.6701 15.1252L20.7601 14.9385L20.8401 15.1305L21.0301 15.1679L20.8851 15.3065M16.5201 14.1332L16.3201 14.0159L16.1201 14.1225L16.1601 13.8772L16.0051 13.7012L16.2301 13.6745L16.3351 13.4559L16.4351 13.6799L16.6551 13.7225L16.4851 13.8932M11.2551 12.0265L11.0551 11.9092L10.8551 12.0159L10.9051 11.7705L10.7401 11.5945L10.9701 11.5679L11.0701 11.3492L11.1701 11.5732L11.3901 11.6159L11.2251 11.7812M11.8901 14.8319L11.6901 14.7092L11.4901 14.8159L11.5351 14.5759L11.3751 14.3999L11.6001 14.3679L11.7051 14.1545L11.8051 14.3785L12.0251 14.4212L11.8601 14.5865M18.4601 10.9972L18.2801 10.8905L18.1001 10.9865L18.1401 10.7732L18.0001 10.6132L18.2001 10.5865L18.2951 10.3945L18.3801 10.5972L18.5801 10.6345L18.4301 10.7785M18.0951 12.8212L17.9601 12.7359L17.8151 12.8105L17.8451 12.6399L17.7351 12.5172L17.8951 12.4959L17.9701 12.3465L18.0351 12.5065L18.1851 12.5332L18.0751 12.6505M10.9651 15.3385L10.8301 15.2585L10.6951 15.3279L10.7251 15.1679L10.6201 15.0505L10.7701 15.0292L10.8401 14.8852L10.9051 15.0345L11.0551 15.0665L10.9401 15.1732M20.9501 15.9892L20.8401 15.9305L20.7301 15.9839L20.7551 15.8612L20.6701 15.7759L20.7901 15.7599L20.8501 15.6532L20.9001 15.7599L21.0251 15.7865L20.9301 15.8665" fill="#FFFFEF"/>
<path fill-rule="evenodd" clip-rule="evenodd" d="M10.9651 15.3391L10.8301 15.2591L10.6951 15.3284L10.7251 15.1684L10.6201 15.0511L10.7701 15.0297L10.8401 14.8857L10.9051 15.0351L11.0551 15.0671L10.9401 15.1737" fill="#FFFFEF"/>
<path fill-rule="evenodd" clip-rule="evenodd" d="M10.9651 15.3389L10.8301 15.2589L10.6951 15.3283L10.7251 15.1683L10.6201 15.0509L10.7701 15.0296L10.8401 14.8856L10.9051 15.0349L11.0551 15.0669L10.9401 15.1736M13.0551 15.3336L12.9251 15.2589L12.7901 15.3283L12.8201 15.1683L12.7151 15.0509L12.8651 15.0296L12.9351 14.8856L13.0001 15.0349L13.1501 15.0616L13.0351 15.1736M12.7951 16.0803L12.6651 16.0003L12.5301 16.0749L12.5601 15.9149L12.4551 15.7923L12.6051 15.7709L12.6751 15.6269L12.7401 15.7763L12.8901 15.8083L12.7751 15.9149M17.1451 14.7309L17.0151 14.6456L16.8751 14.7203L16.9051 14.5603L16.8051 14.4376L16.9551 14.4216L17.0251 14.2776L17.0851 14.4269L17.2351 14.4536L17.1251 14.5656M15.8701 14.7256L15.7351 14.6456L15.6001 14.7203L15.6301 14.5603L15.5301 14.4376L15.6801 14.4216L15.7501 14.2723L15.8101 14.4269L15.9601 14.4536L15.8501 14.5656M12.4101 14.2563L12.3251 14.2029L12.2401 14.2456L12.2601 14.1443L12.1951 14.0696L12.2901 14.0589L12.3301 13.9683L12.3701 14.0643L12.4651 14.0803L12.3951 14.1496M20.7851 16.5709L20.6551 16.4909L20.5201 16.5656L20.5501 16.4056L20.4451 16.2829L20.5951 16.2616L20.6651 16.1176L20.7301 16.2669L20.8801 16.2989L20.7651 16.4056M19.7251 16.7256L19.6151 16.6509L19.5001 16.7149L19.5251 16.5763L19.4401 16.4803L19.5651 16.4643L19.6251 16.3416L19.6751 16.4696L19.8001 16.4909L19.7051 16.5869M20.2251 16.7096L20.1251 16.6456L20.0201 16.6989L20.0401 16.5763L19.9601 16.4856L20.0751 16.4696L20.1301 16.3629L20.1801 16.4696L20.2951 16.4963L20.2101 16.5816M21.6651 15.3656L21.5651 15.3123L21.4651 15.3656L21.4901 15.2429L21.4101 15.1523L21.5251 15.1363L21.5751 15.0296L21.6251 15.1416L21.7301 15.1629L21.6501 15.2483M19.7101 17.4776L19.5851 17.4029L19.4501 17.4669L19.4801 17.3176L19.3801 17.2109L19.5301 17.1949L19.5951 17.0616L19.6551 17.2003L19.8051 17.2269L19.6901 17.3283M19.7201 18.0856L19.6001 18.0109L19.4801 18.0803L19.5101 17.9309L19.4151 17.8243L19.5501 17.8029L19.6101 17.6696L19.6651 17.8083L19.8001 17.8349L19.7001 17.9416M18.7501 16.7096L18.6551 16.6456L18.5551 16.6989L18.5751 16.5816L18.5001 16.4909L18.6101 16.4803L18.6601 16.3736L18.7101 16.4803L18.8201 16.5016L18.7401 16.5869M17.8501 16.7096L17.7501 16.6456L17.6501 16.6989L17.6751 16.5816L17.5951 16.4909L17.7101 16.4803L17.7601 16.3736L17.8101 16.4803L17.9151 16.5016L17.8351 16.5869M16.3151 15.2749L16.2151 15.2163L16.1151 15.2696L16.1401 15.1469L16.0601 15.0616L16.1701 15.0456L16.2201 14.9389L16.2701 15.0456L16.3801 15.0723L16.3001 15.1523M16.4851 18.1923L16.4051 18.1443L16.3151 18.1923L16.3351 18.0856L16.2701 18.0109L16.3651 18.0003L16.4101 17.9096L16.4501 18.0056L16.5451 18.0216L16.4751 18.0909M14.1651 13.4723L13.9651 13.3496L13.7651 13.4563L13.8101 13.2163L13.6501 13.0403L13.8751 13.0083L13.9851 12.7949L14.0801 13.0189L14.3001 13.0616L14.1351 13.2269" fill="#FFFFEF"/>
<path fill-rule="evenodd" clip-rule="evenodd" d="M22.2204 15.2431C22.3443 14.9002 22.4413 14.547 22.5104 14.1871C19.1204 11.0138 15.3454 9.38709 10.5754 9.72309C10.4024 10.0802 10.2601 10.4532 10.1504 10.8378C15.8004 10.2618 19.9504 12.9284 22.2204 15.2431Z" fill="white"/>
<path d="M20.7002 13.4613L20.8152 13.5306C20.798 13.5668 20.7927 13.6081 20.8002 13.6479C20.8119 13.6865 20.8369 13.7189 20.8702 13.7386C20.9052 13.7653 20.9402 13.7813 20.9702 13.7759C21.0002 13.7759 21.0202 13.7599 21.0352 13.7386C21.0439 13.7244 21.0474 13.7074 21.0452 13.6906C21.0411 13.6709 21.0325 13.6526 21.0202 13.6373C21.0102 13.6213 20.9852 13.5839 20.9452 13.5413C20.904 13.496 20.8732 13.4412 20.8552 13.3813C20.8427 13.3358 20.8459 13.2872 20.8643 13.2441C20.8826 13.201 20.9149 13.1664 20.9552 13.1466C20.9915 13.1304 21.0317 13.1267 21.0702 13.1359C21.1172 13.1475 21.1614 13.1693 21.2002 13.1999C21.2702 13.2533 21.3152 13.3066 21.3302 13.3706C21.3371 13.4005 21.338 13.4317 21.3328 13.462C21.3276 13.4923 21.3165 13.5212 21.3002 13.5466L21.1802 13.4666C21.1952 13.4346 21.2002 13.4026 21.1902 13.3759C21.1852 13.3493 21.1652 13.3226 21.1302 13.3013C21.1045 13.2792 21.073 13.2662 21.0402 13.2639C21.0311 13.2636 21.0221 13.2659 21.0142 13.2706C21.0063 13.2753 20.9997 13.2822 20.9952 13.2906C20.9852 13.3066 20.9852 13.3226 20.9902 13.3439C20.9952 13.3653 21.0202 13.4079 21.0702 13.4613C21.1202 13.5146 21.1502 13.5626 21.1702 13.5946C21.188 13.6295 21.1961 13.6692 21.1934 13.7089C21.1908 13.7486 21.1775 13.7867 21.1552 13.8186C21.1318 13.8548 21.0986 13.8827 21.0602 13.8986C21.0227 13.917 20.9807 13.9226 20.9402 13.9146C20.8952 13.9039 20.8502 13.8826 20.8002 13.8453C20.7252 13.7919 20.6802 13.7333 20.6652 13.6693C20.6489 13.5967 20.6596 13.5202 20.6952 13.4559L20.7002 13.4613ZM20.1202 13.0559L20.2452 13.1253C20.2297 13.1621 20.2262 13.2034 20.2352 13.2426C20.2479 13.2792 20.2728 13.3095 20.3052 13.3279C20.3452 13.3546 20.3752 13.3653 20.4052 13.3599C20.4352 13.3599 20.4552 13.3439 20.4702 13.3173C20.4777 13.3046 20.4813 13.2896 20.4802 13.2746C20.4802 13.2586 20.4702 13.2373 20.4552 13.2213C20.4295 13.1883 20.4029 13.1563 20.3752 13.1253C20.3202 13.0666 20.2852 13.0186 20.2752 12.9759C20.267 12.9485 20.2645 12.9195 20.268 12.8909C20.2714 12.8623 20.2807 12.8349 20.2952 12.8106C20.3142 12.7777 20.3421 12.7517 20.3752 12.7359C20.4095 12.719 20.4478 12.7135 20.4852 12.7199C20.5314 12.7282 20.5756 12.7464 20.6152 12.7733C20.6902 12.8266 20.7352 12.8799 20.7502 12.9386C20.7593 12.9686 20.7622 13.0003 20.7587 13.0316C20.7553 13.0629 20.7455 13.093 20.7302 13.1199L20.6052 13.0453C20.6202 13.0079 20.6252 12.9813 20.6152 12.9546C20.6052 12.9279 20.5852 12.9013 20.5502 12.8799C20.5225 12.8587 20.4892 12.8475 20.4552 12.8479C20.4469 12.8485 20.439 12.8513 20.432 12.8559C20.425 12.8606 20.4193 12.867 20.4152 12.8746C20.4052 12.8906 20.4052 12.9066 20.4102 12.9279C20.4152 12.9493 20.4452 12.9919 20.4952 13.0453C20.5452 13.0986 20.5802 13.1413 20.5952 13.1733C20.6152 13.2067 20.6258 13.2456 20.6258 13.2853C20.6258 13.3249 20.6152 13.3638 20.5952 13.3973C20.5736 13.4345 20.5423 13.4641 20.5052 13.4826C20.4677 13.501 20.4257 13.5066 20.3852 13.4986C20.3337 13.4893 20.2844 13.4694 20.2402 13.4399C20.1755 13.4032 20.1257 13.3425 20.1002 13.2693C20.0808 13.198 20.088 13.1216 20.1202 13.0559ZM19.4102 12.8533L19.7752 12.2133L20.2152 12.5066L20.1552 12.6133L19.8352 12.3999L19.7552 12.5439L20.0552 12.7413L19.9902 12.8479L19.6902 12.6506L19.5902 12.8266L19.9252 13.0399L19.8652 13.1466L19.4102 12.8533ZM18.3752 11.9466L18.4302 11.8399L18.7002 11.9839L18.5752 12.2506C18.5352 12.2613 18.4852 12.2666 18.4252 12.2613C18.3675 12.2545 18.3116 12.2364 18.2602 12.2079C18.1997 12.1765 18.1479 12.1287 18.1102 12.0693C18.0758 12.0141 18.0583 11.9488 18.0602 11.8826C18.0627 11.8136 18.0798 11.7462 18.1102 11.6853C18.1402 11.6211 18.1849 11.5661 18.2402 11.5253C18.293 11.4863 18.3559 11.4658 18.4202 11.4666C18.4702 11.4666 18.5202 11.4826 18.5802 11.5199C18.6602 11.5573 18.7102 11.6106 18.7352 11.6693C18.7612 11.7275 18.7665 11.7938 18.7502 11.8559L18.6152 11.8133C18.6234 11.7775 18.6199 11.7399 18.6052 11.7066C18.5902 11.6746 18.5652 11.6533 18.5252 11.6319C18.5018 11.6177 18.476 11.609 18.4493 11.6062C18.4225 11.6034 18.3956 11.6068 18.3702 11.6159C18.3202 11.6319 18.2752 11.6799 18.2402 11.7546C18.2052 11.8293 18.1902 11.8986 18.2052 11.9573C18.2121 11.9851 18.2246 12.011 18.2419 12.0331C18.2591 12.0552 18.2807 12.073 18.3052 12.0853C18.3302 12.1013 18.3602 12.1119 18.3902 12.1119C18.42 12.1167 18.4503 12.1167 18.4802 12.1119L18.5202 12.0266L18.3752 11.9466ZM13.8652 10.7573L13.9652 10.0106L14.1752 10.0479L14.2302 10.5706L14.4252 10.0906L14.6352 10.1226L14.5352 10.8586L14.4002 10.8373L14.4852 10.2559L14.2652 10.8159L14.1302 10.7946L14.0752 10.1919L13.9952 10.7786L13.8652 10.7573ZM13.1602 10.6666L13.2252 9.91992L13.7402 9.97326L13.7302 10.1013L13.3552 10.0639L13.3402 10.2239L13.6902 10.2613L13.6752 10.3893L13.3252 10.3519L13.3102 10.5546L13.7002 10.5919L13.6902 10.7199L13.1602 10.6666Z" fill="#222222"/>
<path d="M10.8254 10.2024C10.8254 10.1224 10.8404 10.0637 10.8604 10.0104C10.8779 9.97243 10.9016 9.93812 10.9304 9.90903C10.9561 9.88144 10.9867 9.85967 11.0204 9.84503C11.0704 9.82903 11.1204 9.81836 11.1704 9.81836C11.2754 9.81836 11.3554 9.86103 11.4204 9.92503C11.4513 9.9658 11.4744 10.0127 11.4881 10.0631C11.5018 10.1135 11.506 10.1662 11.5004 10.2184C11.5004 10.3357 11.4654 10.4317 11.4004 10.501C11.367 10.534 11.3275 10.559 11.2844 10.5747C11.2414 10.5903 11.1957 10.5961 11.1504 10.5917C11.1057 10.5922 11.0614 10.583 11.0201 10.5646C10.9789 10.5463 10.9416 10.5192 10.9104 10.485C10.8482 10.4065 10.8176 10.3049 10.8254 10.2024Z" fill="#222222"/>
<path d="M10.9707 10.2024C10.9707 10.2824 10.9857 10.3464 11.0207 10.3944C11.0557 10.4371 11.1007 10.4637 11.1607 10.4637C11.1867 10.4657 11.2127 10.4614 11.2369 10.4512C11.2611 10.4411 11.2829 10.4253 11.3007 10.4051C11.3357 10.3624 11.3507 10.2984 11.3557 10.2077C11.3557 10.1224 11.3457 10.0584 11.3057 10.0157C11.2894 9.99422 11.2689 9.97685 11.2455 9.96486C11.2222 9.95287 11.1966 9.94656 11.1707 9.94639C11.1444 9.94549 11.1182 9.95076 11.094 9.96181C11.0699 9.97287 11.0482 9.98945 11.0307 10.0104C10.9907 10.0531 10.9757 10.1171 10.9707 10.2024Z" fill="#F7FFFF"/>
<path d="M11.6504 10.5865L11.6604 9.83984H11.9604C12.0354 9.83984 12.0854 9.85051 12.1204 9.86651C12.1554 9.87718 12.1804 9.90384 12.2004 9.93584C12.2204 9.96784 12.2304 10.0105 12.2304 10.0585C12.2308 10.1098 12.2129 10.1594 12.1804 10.1972C12.1434 10.2341 12.0959 10.2567 12.0454 10.2612L12.1204 10.3252C12.1404 10.3465 12.1654 10.3892 12.1954 10.4478L12.2804 10.5972H12.1104L12.0104 10.4265L11.9404 10.3198C11.9283 10.3052 11.9128 10.2941 11.8954 10.2878C11.8726 10.2808 11.8491 10.2772 11.8254 10.2772H11.7954V10.5865H11.6504Z" fill="#222222"/>
<path d="M11.8008 10.1598H11.9008C11.9708 10.1598 12.0158 10.1598 12.0308 10.1491C12.0458 10.1491 12.0608 10.1331 12.0708 10.1224C12.0808 10.1118 12.0858 10.0851 12.0858 10.0691C12.0858 10.0371 12.0808 10.0158 12.0658 10.0051C12.0558 9.98911 12.0358 9.97844 12.0158 9.97311H11.9158L11.8008 9.96777V10.1598Z" fill="white"/>
<path d="M12.45 9.87695L12.71 9.89295C12.765 9.89295 12.81 9.89829 12.84 9.90895C12.879 9.92401 12.9135 9.94977 12.94 9.98362C12.9688 10.0209 12.9894 10.0647 13 10.1116C13.015 10.1596 13.02 10.2183 13.015 10.2876C13.015 10.3421 13.0065 10.3961 12.99 10.4476C12.97 10.501 12.94 10.5436 12.905 10.5756C12.8759 10.6012 12.8417 10.6195 12.805 10.629C12.775 10.6396 12.73 10.6396 12.68 10.6396L12.415 10.6236L12.45 9.87695Z" fill="#222222"/>
<path d="M12.5846 10.0107L12.5596 10.5067H12.7496C12.7746 10.5067 12.7946 10.4961 12.8096 10.4801C12.8246 10.4641 12.8396 10.4427 12.8496 10.4107C12.8596 10.3787 12.8696 10.3307 12.8696 10.2721L12.8646 10.1387C12.8574 10.1106 12.8437 10.0849 12.8246 10.0641C12.808 10.0463 12.7873 10.0334 12.7646 10.0267C12.7268 10.0178 12.6883 10.0124 12.6496 10.0107H12.5846Z" fill="white"/>
<path d="M15.8799 11.2107L16.0449 10.4854L16.2649 10.5387L16.4249 10.592C16.4599 10.6134 16.4899 10.6454 16.5049 10.6934C16.5249 10.736 16.5249 10.784 16.5149 10.8427C16.5049 10.8854 16.4899 10.9227 16.4649 10.9494C16.4465 10.9728 16.4236 10.9916 16.3977 11.0045C16.3718 11.0174 16.3435 11.0241 16.3149 11.024C16.2799 11.024 16.2299 11.0134 16.1649 10.9974L16.0799 10.9707L16.0199 11.248L15.8799 11.2107Z" fill="#222222"/>
<path d="M16.1504 10.6455L16.1104 10.8482L16.1854 10.8695C16.2354 10.8802 16.2754 10.8908 16.2954 10.8855C16.3148 10.8826 16.3329 10.8734 16.3473 10.8591C16.3616 10.8447 16.3714 10.826 16.3754 10.8055C16.3754 10.7788 16.3754 10.7575 16.3654 10.7362C16.3544 10.7145 16.3367 10.6975 16.3154 10.6882L16.2204 10.6615L16.1554 10.6455H16.1504Z" fill="white"/>
<path d="M16.5303 11.4188L16.7653 10.7148L17.0403 10.8215C17.1153 10.8482 17.1603 10.8748 17.1903 10.8962C17.2153 10.9228 17.2353 10.9495 17.2403 10.9922C17.2453 11.0348 17.2503 11.0722 17.2403 11.1148C17.2203 11.1682 17.1903 11.2055 17.1503 11.2322C17.1103 11.2535 17.0603 11.2588 17.0003 11.2482C17.0203 11.2748 17.0403 11.3015 17.0503 11.3335L17.0903 11.4775L17.1203 11.6428L16.9653 11.5842L16.9153 11.3922C16.9062 11.3488 16.8945 11.306 16.8803 11.2642C16.8736 11.2476 16.8633 11.2329 16.8503 11.2215C16.8403 11.2055 16.8203 11.1948 16.7853 11.1842L16.7603 11.1735L16.6603 11.4722L16.5303 11.4188Z" fill="#222222"/>
<path d="M16.7999 11.0617L16.8949 11.0991C16.9599 11.1257 16.9999 11.1364 17.0199 11.1364C17.0349 11.1364 17.0499 11.1364 17.0649 11.1204C17.0799 11.1097 17.0899 11.0937 17.0949 11.0724C17.1049 11.0511 17.1049 11.0297 17.0949 11.0084C17.0875 10.9877 17.0733 10.9707 17.0549 10.9604L16.9549 10.9231L16.8549 10.8857L16.7949 11.0617H16.7999Z" fill="white"/>
<path d="M17.3503 11.3915C17.3675 11.3291 17.3964 11.271 17.4353 11.2208C17.4606 11.1887 17.4911 11.1616 17.5253 11.1408C17.5563 11.1222 17.5902 11.1095 17.6253 11.1035C17.6753 11.1035 17.7253 11.1035 17.7803 11.1248C17.825 11.1366 17.8668 11.1584 17.903 11.1888C17.9393 11.2191 17.969 11.2573 17.9903 11.3008C18.0303 11.3862 18.0303 11.4875 18.0003 11.6048C17.9756 11.7057 17.9145 11.7919 17.8303 11.8448C17.7553 11.8928 17.6653 11.8982 17.5703 11.8662C17.5257 11.8541 17.484 11.8322 17.4479 11.8019C17.4117 11.7715 17.3819 11.7335 17.3603 11.6902C17.3403 11.6436 17.3291 11.5932 17.3274 11.5419C17.3257 11.4907 17.3335 11.4395 17.3503 11.3915Z" fill="#222222"/>
<path d="M17.4906 11.4345C17.4706 11.5145 17.4656 11.5838 17.4906 11.6371C17.5156 11.6905 17.5506 11.7225 17.6056 11.7438C17.6556 11.7598 17.7056 11.7545 17.7556 11.7225C17.8056 11.6958 17.8356 11.6371 17.8606 11.5518C17.8856 11.4718 17.8856 11.4078 17.8606 11.3545C17.8507 11.3292 17.8357 11.3065 17.8167 11.2881C17.7977 11.2696 17.7751 11.2559 17.7506 11.2478C17.726 11.2388 17.6998 11.2355 17.6739 11.2383C17.648 11.241 17.623 11.2497 17.6006 11.2638C17.5506 11.2958 17.5156 11.3491 17.4906 11.4345Z" fill="white"/>
<path d="M18.7148 12.4318L19.0348 11.7705L19.2998 11.9145C19.3498 11.9401 19.3954 11.9743 19.4348 12.0158C19.4598 12.0425 19.4748 12.0745 19.4748 12.1172C19.4748 12.1598 19.4748 12.1972 19.4548 12.2345C19.4356 12.2825 19.3998 12.3207 19.3548 12.3412C19.3048 12.3518 19.2548 12.3518 19.1998 12.3305C19.2198 12.3625 19.2298 12.3945 19.2398 12.4212C19.2498 12.4532 19.2548 12.5012 19.2598 12.5705L19.2698 12.7412L19.1198 12.6612L19.0998 12.4638C19.0975 12.4191 19.0925 12.3746 19.0848 12.3305C19.0814 12.3106 19.0728 12.2921 19.0598 12.2772L18.9998 12.2398L18.9748 12.2238L18.8398 12.5012L18.7148 12.4318Z" fill="#222222"/>
<path d="M19.0244 12.117L19.1194 12.1703C19.1794 12.2023 19.2194 12.2236 19.2344 12.2236C19.2494 12.2236 19.2694 12.2236 19.2844 12.213C19.2994 12.2076 19.3094 12.1916 19.3194 12.1703C19.3294 12.149 19.3344 12.1276 19.3294 12.1063C19.3232 12.0851 19.311 12.0664 19.2944 12.053C19.2652 12.0338 19.2351 12.016 19.2044 11.9996L19.1044 11.9463L19.0244 12.117Z" fill="white"/>
<path d="M21.3047 13.7971C21.3371 13.7422 21.3796 13.6951 21.4297 13.6584C21.4634 13.6355 21.5006 13.6192 21.5397 13.6104C21.576 13.6025 21.6134 13.6025 21.6497 13.6104C21.6997 13.6211 21.7447 13.6424 21.7897 13.6744C21.8286 13.7003 21.8621 13.7345 21.8879 13.7749C21.9137 13.8153 21.9314 13.861 21.9397 13.9091C21.9547 13.9998 21.9297 14.1011 21.8697 14.2024C21.8195 14.2906 21.7386 14.3539 21.6447 14.3784C21.6 14.3887 21.5536 14.3888 21.5088 14.3787C21.464 14.3686 21.4217 14.3485 21.3847 14.3198C21.3458 14.2939 21.3124 14.2597 21.2865 14.2193C21.2607 14.1789 21.2431 14.1332 21.2347 14.0851C21.2197 13.9891 21.2447 13.8931 21.3047 13.7971Z" fill="#222222"/>
<path d="M21.43 13.8826C21.38 13.9519 21.365 14.0159 21.375 14.0746C21.3787 14.1016 21.3877 14.1275 21.4015 14.1505C21.4153 14.1735 21.4335 14.1931 21.455 14.2079C21.505 14.2453 21.555 14.2559 21.605 14.2399C21.655 14.2239 21.705 14.1866 21.75 14.1119C21.795 14.0373 21.815 13.9733 21.805 13.9199C21.8 13.8666 21.77 13.8186 21.725 13.7813C21.68 13.7439 21.625 13.7386 21.575 13.7546C21.525 13.7653 21.475 13.8079 21.425 13.8826H21.43Z" fill="white"/>
<path d="M15.0898 10.9065L15.2048 10.3838L15.5648 10.4745L15.5498 10.5598L15.2848 10.4958L15.2598 10.6131L15.5048 10.6718L15.4848 10.7625L15.2398 10.6985L15.2098 10.8425L15.4848 10.9118L15.4648 10.9971L15.0898 10.9065Z" fill="#222222"/>
</svg>
