<svg width="32" height="26" viewBox="0 0 32 26" fill="none" xmlns="http://www.w3.org/2000/svg">
<g clip-path="url(#clip0_377_763)">
<path d="M48.5182 0.0966797H0.000976562V25.5063H48.5182V0.0966797Z" fill="white"/>
<path d="M48.4776 0H0.000976562V2.01001H48.4776V0Z" fill="#222222"/>
<path d="M48.4785 3.93164H0.00195312V5.94161H48.4785V3.93164Z" fill="#222222"/>
<path d="M48.4785 7.8623H0.00195312V9.8723H48.4785V7.8623Z" fill="#222222"/>
<path d="M48.4785 11.7939H0.00195312V13.8039H48.4785V11.7939Z" fill="#222222"/>
<path d="M48.4785 15.7285H0.00195312V17.7386H48.4785V15.7285Z" fill="#222222"/>
<path d="M48.4785 19.6592H0.00195312V21.6692H48.4785V19.6592Z" fill="#222222"/>
<path d="M48.4785 23.5908H0.00195312V25.6008H48.4785V23.5908Z" fill="#222222"/>
<path d="M19.3613 0H0V13.8056H19.3613V0Z" fill="#090726"/>
<path d="M1.64647 0.52832L1.82764 1.09186H2.41398L1.9396 1.44014L2.12082 2.00371L1.64647 1.65543L1.17211 2.00371L1.35329 1.44014L0.878906 1.09186H1.46524L1.64647 0.52832Z" fill="white"/>
<path d="M3.2421 1.94434L3.42327 2.5079H4.00961L3.5353 2.85618L3.71645 3.41972L3.2421 3.07147L2.76774 3.41972L2.94892 2.85618L2.47461 2.5079H3.06095L3.2421 1.94434Z" fill="white"/>
<path d="M3.2421 4.71289L3.42327 5.27646H4.00961L3.5353 5.62474L3.71645 6.18828L3.2421 5.84002L2.76774 6.18828L2.94892 5.62474L2.47461 5.27646H3.06095L3.2421 4.71289Z" fill="white"/>
<path d="M3.2421 7.48145L3.42327 8.04501H4.00961L3.5353 8.39329L3.71645 8.95683L3.2421 8.60858L2.76774 8.95683L2.94892 8.39329L2.47461 8.04501H3.06095L3.2421 7.48145Z" fill="white"/>
<path d="M3.2421 10.2471L3.42327 10.8106H4.00961L3.5353 11.1589L3.71645 11.7225L3.2421 11.3742L2.76774 11.7225L2.94892 11.1589L2.47461 10.8106H3.06095L3.2421 10.2471Z" fill="white"/>
<path d="M6.47655 1.94434L6.6577 2.5079H7.24403L6.76968 2.85618L6.9509 3.41972L6.47655 3.07147L6.00217 3.41972L6.18334 2.85618L5.70898 2.5079H6.29532L6.47655 1.94434Z" fill="white"/>
<path d="M6.47655 4.71289L6.6577 5.27646H7.24403L6.76968 5.62474L6.9509 6.18828L6.47655 5.84002L6.00217 6.18828L6.18334 5.62474L5.70898 5.27646H6.29532L6.47655 4.71289Z" fill="white"/>
<path d="M6.47655 7.48145L6.6577 8.04501H7.24403L6.76968 8.39329L6.9509 8.95683L6.47655 8.60858L6.00217 8.95683L6.18334 8.39329L5.70898 8.04501H6.29532L6.47655 7.48145Z" fill="white"/>
<path d="M6.47655 10.2471L6.6577 10.8106H7.24403L6.76968 11.1589L6.9509 11.7225L6.47655 11.3742L6.00217 11.7225L6.18334 11.1589L5.70898 10.8106H6.29532L6.47655 10.2471Z" fill="white"/>
<path d="M9.71092 1.94434L9.8921 2.5079H10.4784L10.0041 2.85618L10.1853 3.41972L9.71092 3.07147L9.23656 3.41972L9.41772 2.85618L8.94336 2.5079H9.5297L9.71092 1.94434Z" fill="white"/>
<path d="M9.7119 4.71289L9.89307 5.27646H10.4794L10.005 5.62474L10.1863 6.18828L9.7119 5.84002L9.23754 6.18828L9.41869 5.62474L8.94434 5.27646H9.53067L9.7119 4.71289Z" fill="white"/>
<path d="M9.71092 7.48145L9.8921 8.04501H10.4784L10.0041 8.39329L10.1853 8.95683L9.71092 8.60858L9.23656 8.95683L9.41772 8.39329L8.94336 8.04501H9.5297L9.71092 7.48145Z" fill="white"/>
<path d="M9.71092 10.2471L9.8921 10.8106H10.4784L10.0041 11.1589L10.1853 11.7225L9.71092 11.3742L9.23656 11.7225L9.41772 11.1589L8.94336 10.8106H9.5297L9.71092 10.2471Z" fill="white"/>
<path d="M12.9462 1.94434L13.1274 2.5079H13.7138L13.2394 2.85618L13.4206 3.41972L12.9462 3.07147L12.4719 3.41972L12.6531 2.85618L12.1787 2.5079H12.765L12.9462 1.94434Z" fill="white"/>
<path d="M12.9462 4.71289L13.1274 5.27646H13.7138L13.2394 5.62474L13.4206 6.18828L12.9462 5.84002L12.4719 6.18828L12.6531 5.62474L12.1787 5.27646H12.765L12.9462 4.71289Z" fill="white"/>
<path d="M12.9462 7.48145L13.1274 8.04501H13.7138L13.2394 8.39329L13.4206 8.95683L12.9462 8.60858L12.4719 8.95683L12.6531 8.39329L12.1787 8.04501H12.765L12.9462 7.48145Z" fill="white"/>
<path d="M12.9462 10.2471L13.1274 10.8106H13.7138L13.2394 11.1589L13.4206 11.7225L12.9462 11.3742L12.4719 11.7225L12.6531 11.1589L12.1787 10.8106H12.765L12.9462 10.2471Z" fill="white"/>
<path d="M16.1806 1.94434L16.3618 2.5079H16.9481L16.4738 2.85618L16.6549 3.41972L16.1806 3.07147L15.7063 3.41972L15.8874 2.85618L15.4131 2.5079H15.9994L16.1806 1.94434Z" fill="white"/>
<path d="M16.1806 4.71289L16.3618 5.27646H16.9481L16.4738 5.62474L16.6549 6.18828L16.1806 5.84002L15.7063 6.18828L15.8874 5.62474L15.4131 5.27646H15.9994L16.1806 4.71289Z" fill="white"/>
<path d="M16.1806 7.48145L16.3618 8.04501H16.9481L16.4738 8.39329L16.6549 8.95683L16.1806 8.60858L15.7063 8.95683L15.8874 8.39329L15.4131 8.04501H15.9994L16.1806 7.48145Z" fill="white"/>
<path d="M16.1806 10.2471L16.3618 10.8106H16.9481L16.4738 11.1589L16.6549 11.7225L16.1806 11.3742L15.7063 11.7225L15.8874 11.1589L15.4131 10.8106H15.9994L16.1806 10.2471Z" fill="white"/>
<path d="M1.64647 3.29688L1.82764 3.86042H2.41398L1.9396 4.2087L2.12082 4.77226L1.64647 4.42398L1.17211 4.77226L1.35329 4.2087L0.878906 3.86042H1.46524L1.64647 3.29688Z" fill="white"/>
<path d="M1.64647 6.0625L1.82764 6.62604H2.41398L1.9396 6.97432L2.12082 7.53789L1.64647 7.18961L1.17211 7.53789L1.35329 6.97432L0.878906 6.62604H1.46524L1.64647 6.0625Z" fill="white"/>
<path d="M1.64647 8.83203L1.82764 9.39557H2.41398L1.9396 9.74385L2.12082 10.3074L1.64647 9.95914L1.17211 10.3074L1.35329 9.74385L0.878906 9.39557H1.46524L1.64647 8.83203Z" fill="white"/>
<path d="M1.64647 11.6006L1.82764 12.1642H2.41398L1.9396 12.5124L2.12082 13.076L1.64647 12.7277L1.17211 13.076L1.35329 12.5124L0.878906 12.1642H1.46524L1.64647 11.6006Z" fill="white"/>
<path d="M4.83782 0.52832L5.01898 1.09186H5.60536L5.13101 1.44014L5.31218 2.00371L4.83782 1.65543L4.36344 2.00371L4.54467 1.44014L4.07031 1.09186H4.65665L4.83782 0.52832Z" fill="white"/>
<path d="M4.83782 3.29688L5.01898 3.86042H5.60536L5.13101 4.2087L5.31218 4.77226L4.83782 4.42398L4.36344 4.77226L4.54467 4.2087L4.07031 3.86042H4.65665L4.83782 3.29688Z" fill="white"/>
<path d="M4.83782 6.0625L5.01898 6.62604H5.60536L5.13101 6.97432L5.31218 7.53789L4.83782 7.18961L4.36344 7.53789L4.54467 6.97432L4.07031 6.62604H4.65665L4.83782 6.0625Z" fill="white"/>
<path d="M4.83782 8.83203L5.01898 9.39557H5.60536L5.13101 9.74385L5.31218 10.3074L4.83782 9.95914L4.36344 10.3074L4.54467 9.74385L4.07031 9.39557H4.65665L4.83782 8.83203Z" fill="white"/>
<path d="M4.83782 11.6006L5.01898 12.1642H5.60536L5.13101 12.5124L5.31218 13.076L4.83782 12.7277L4.36344 13.076L4.54467 12.5124L4.07031 12.1642H4.65665L4.83782 11.6006Z" fill="white"/>
<path d="M8.11614 0.52832L8.29734 1.09186H8.88363L8.40933 1.44014L8.5905 2.00371L8.11614 1.65543L7.64181 2.00371L7.82299 1.44014L7.34863 1.09186H7.93497L8.11614 0.52832Z" fill="white"/>
<path d="M8.11614 3.29688L8.29734 3.86042H8.88363L8.40933 4.2087L8.5905 4.77226L8.11614 4.42398L7.64181 4.77226L7.82299 4.2087L7.34863 3.86042H7.93497L8.11614 3.29688Z" fill="white"/>
<path d="M8.11614 6.0625L8.29734 6.62604H8.88363L8.40933 6.97432L8.5905 7.53789L8.11614 7.18961L7.64181 7.53789L7.82299 6.97432L7.34863 6.62604H7.93497L8.11614 6.0625Z" fill="white"/>
<path d="M8.11614 8.83203L8.29734 9.39557H8.88363L8.40933 9.74385L8.5905 10.3074L8.11614 9.95914L7.64181 10.3074L7.82299 9.74385L7.34863 9.39557H7.93497L8.11614 8.83203Z" fill="white"/>
<path d="M8.11614 11.6006L8.29734 12.1642H8.88363L8.40933 12.5124L8.5905 13.076L8.11614 12.7277L7.64181 13.076L7.82299 12.5124L7.34863 12.1642H7.93497L8.11614 11.6006Z" fill="white"/>
<path d="M11.3291 0.52832L11.5102 1.09186H12.0966L11.6222 1.44014L11.8034 2.00371L11.3291 1.65543L10.8547 2.00371L11.0359 1.44014L10.5615 1.09186H11.1479L11.3291 0.52832Z" fill="white"/>
<path d="M11.3281 3.29688L11.5093 3.86042H12.0956L11.6212 4.2087L11.8024 4.77226L11.3281 4.42398L10.8537 4.77226L11.0349 4.2087L10.5605 3.86042H11.1469L11.3281 3.29688Z" fill="white"/>
<path d="M11.3281 6.0625L11.5093 6.62604H12.0956L11.6212 6.97432L11.8024 7.53789L11.3281 7.18961L10.8537 7.53789L11.0349 6.97432L10.5605 6.62604H11.1469L11.3281 6.0625Z" fill="white"/>
<path d="M11.3291 8.83203L11.5102 9.39557H12.0966L11.6222 9.74385L11.8034 10.3074L11.3291 9.95914L10.8547 10.3074L11.0359 9.74385L10.5615 9.39557H11.1479L11.3291 8.83203Z" fill="white"/>
<path d="M11.3281 11.6006L11.5093 12.1642H12.0956L11.6212 12.5124L11.8024 13.076L11.3281 12.7277L10.8537 13.076L11.0349 12.5124L10.5605 12.1642H11.1469L11.3281 11.6006Z" fill="white"/>
<path d="M14.542 0.52832L14.7231 1.09186H15.3095L14.8351 1.44014L15.0163 2.00371L14.542 1.65543L14.0676 2.00371L14.2488 1.44014L13.7744 1.09186H14.3608L14.542 0.52832Z" fill="white"/>
<path d="M14.542 3.29688L14.7231 3.86042H15.3095L14.8351 4.2087L15.0163 4.77226L14.542 4.42398L14.0676 4.77226L14.2488 4.2087L13.7744 3.86042H14.3608L14.542 3.29688Z" fill="white"/>
<path d="M14.542 6.0625L14.7231 6.62604H15.3095L14.8351 6.97432L15.0163 7.53789L14.542 7.18961L14.0676 7.53789L14.2488 6.97432L13.7744 6.62604H14.3608L14.542 6.0625Z" fill="white"/>
<path d="M14.542 8.83203L14.7231 9.39557H15.3095L14.8351 9.74385L15.0163 10.3074L14.542 9.95914L14.0676 10.3074L14.2488 9.74385L13.7744 9.39557H14.3608L14.542 8.83203Z" fill="white"/>
<path d="M14.542 11.6006L14.7231 12.1642H15.3095L14.8351 12.5124L15.0163 13.076L14.542 12.7277L14.0676 13.076L14.2488 12.5124L13.7744 12.1642H14.3608L14.542 11.6006Z" fill="white"/>
<path d="M17.8192 0.52832L18.0005 1.09186H18.5868L18.1124 1.44014L18.2936 2.00371L17.8192 1.65543L17.3449 2.00371L17.5261 1.44014L17.0518 1.09186H17.6381L17.8192 0.52832Z" fill="white"/>
<path d="M17.8202 3.29688L18.0014 3.86042H18.5878L18.1134 4.2087L18.2946 4.77226L17.8202 4.42398L17.3459 4.77226L17.5271 4.2087L17.0527 3.86042H17.6391L17.8202 3.29688Z" fill="white"/>
<path d="M17.8202 6.0625L18.0014 6.62604H18.5878L18.1134 6.97432L18.2946 7.53789L17.8202 7.18961L17.3459 7.53789L17.5271 6.97432L17.0527 6.62604H17.6391L17.8202 6.0625Z" fill="white"/>
<path d="M17.8192 8.83203L18.0005 9.39557H18.5868L18.1124 9.74385L18.2936 10.3074L17.8192 9.95914L17.3449 10.3074L17.5261 9.74385L17.0518 9.39557H17.6381L17.8192 8.83203Z" fill="white"/>
<path d="M17.8202 11.6006L18.0014 12.1642H18.5878L18.1134 12.5124L18.2946 13.076L17.8202 12.7277L17.3459 13.076L17.5271 12.5124L17.0527 12.1642H17.6391L17.8202 11.6006Z" fill="white"/>
</g>
<defs>
<clipPath id="clip0_377_763">
<rect width="32" height="25.6" fill="white"/>
</clipPath>
</defs>
</svg>
